<svg width="160" height="160" viewBox="0 0 160 160" fill="none" xmlns="http://www.w3.org/2000/svg">
<rect width="160" height="160" rx="8" fill="#0064FA"/>
<path d="M129.143 47.1429C108.857 35.4286 66.2854 26.2857 43.9997 25.7143C21.714 25.1429 19.1425 33.1429 20.2854 51.4286C21.714 69.7143 26.8568 98 38.5711 116C50.2854 134 67.9997 142 86.8568 135.429C105.714 128.857 125.714 108 136.857 90.5714C147.714 73.1429 149.428 58.8572 129.143 47.1429ZM89.4283 97.1429H75.1425V120.857H60.5711V66.5714H75.1425V82.5714H89.4283C95.4283 82.5714 100.285 77.7143 100.285 71.7143C100.285 65.7143 95.4283 60.8572 89.4283 60.8572H42.5711L47.9997 46.2857H89.4283C103.428 46.2857 115.143 57.7143 115.143 72C114.857 85.7143 103.428 97.1429 89.4283 97.1429Z" fill="white"/>
</svg>
