<svg xmlns="http://www.w3.org/2000/svg" xmlns:xlink="http://www.w3.org/1999/xlink" x="0" y="0" width="1000" height="410" viewBox="0 0 1000 410">
<defs>
  <path id="continents" d="M136.4,19.7c-2.8-0.1-5.4,0.4-7.9,1.5c0.5,0.5,1.1,1,1.9,1.3c2.5,1.4,5.5,1.9,8.7,1.4c2.6,0.2,5.2,0.7,7.7,1.4c0.5,0.2,0.9,0.5,1.2,1c1.1,2.9,3.2,4.4,6,5c-0.3,0.2-0.5,0.5-0.8,1c0,0,0.1,0.1,0.2,0.1c0.2,0.2,0.5,0.4,0.7,0.5c0.2,0.2,0.3,0.4,0.3,0.7c-2.9,1.2-3.3,3.1-1.4,5.4c0.3,0.4,0.6,0.8,0.9,1.2c1,1.9,2.5,3.1,4.4,3.9c2.5,0.9,5.2,1.8,7.7,2.5c1.3-1.6,2.4-3.4,3.3-5.4c0.3-0.8,0.9-1.2,1.5-1.5c1.8-1,3.6-1.8,5.7-2.4c1-0.3,2-0.7,3-0.9c4.5-0.3,8.6-1.7,12.5-4l-0.1-1.3c-1.9-0.4-3.2-1.2-4-2.2l4.7-1l0.4-0.9l1.9-0.2c0.1-0.2,0.2-0.3,0.2-0.5c0.2-0.5,0-1.1-0.4-1.5c0.5-0.1,0.9-0.2,1.4-0.3c1.1-0.3,1.7-1.1,1.7-2.2l-2.4-0.3l0.2-0.8l1.2-0.7l-0.9-1c2.2,0.2,4-0.4,5.4-2.1l-0.6-0.3c-3.4,0.1-6.9,0.6-10.3,1.3l-0.9-1.1c-9.2-0.4-18.1-0.9-27.1-0.8c-0.7,0.2-1.5,0.2-2.2,0.2c-2.2,0.3-4.3,0.4-6.4,0.3c-1.8-0.1-3.5,0-5.2,0.2c-4.3,0.9-8.6,1.2-13,1.1L136.4,19.7zM233,68.6l-0.1,0.4l1.3,0.9l0.2-1.5C233.8,68.3,233.3,68.4,233,68.6zM196.2,37.5l-0.6,0.6c-1.4-0.9-3-1.1-4.6-0.7c-0.8,1.3-0.4,2.5,1,3.5c2.1,1.5,4.3,1.8,6.9,0.9c0.7-0.2,1.2-0.4,1.8-0.9c2.1-1.4,1.9-2.5-0.3-3.5L196.2,37.5zM242.1,77l0.2-2l-0.4-0.7l-3.6,0.3l3.1,2.2L242.1,77zM268.4,78.2l-1-0.2l-2.1,0.2l0.1,0.7C266.5,79.1,267.5,78.9,268.4,78.2zM122.1,29c-1.5-0.5-3.2-1-4.8-1.2c-3.3-0.4-6.7-0.4-10,0.1c-1.6-0.1-2.6,0.6-3.3,2.2c-0.1,0.2-0.1,0.4-0.1,0.7c4.3,0.9,8.8,1.2,13.2,1.1c3.1-0.2,5.7,0.7,8,2.9l-0.1,0.6l-1.2,0.9l-3.3-0.5l-1.9,2.5l0.4,0.6c4.3-0.2,8.4,0.3,12.2,1.9c0.8,0.2,1.4,0.3,2.2,0.4c1.2-0.2,2.3-0.5,3.3-1.1l0.1-0.7l-3.1-2.3c2.2,0.1,4.3-0.2,6.3-0.9C134.2,33.2,128.1,30.9,122.1,29zM256.1,77.8l-3.5-0.2l0.4,1.1l3.2-0.1L256.1,77.8zM148.5,58.4c0.2-0.3,0.2-0.9,0.2-1.3h-1.2l-3.7,5.7c3,1.2,6,1.3,9,0.5c-0.5-2.2-1.9-3.6-4.1-4c-0.2-0.1-0.4-0.3-0.6-0.4v-0.2C148.3,58.9,148.4,58.6,148.5,58.4zM88.9,22.2c2,0.9,3.6,0.7,5.2-0.4c-1.5-0.8-3-1.1-4.8-0.9c-0.4,0.2-0.7,0.6-0.5,1.1C88.7,22,88.8,22.1,88.9,22.2zM89.2,25.5c1.9,0.2,3.6,0.2,5.4-0.4c1.3,1,2.5,1.2,3.7,0.5v-0.3c0-1.2,0.6-2.1,1.4-2.6c-0.8-1.3-1.9-1.9-3.3-1.9l-0.6,1.5l-0.2,1.2c-1.7,0.1-3.3,0.3-5,0.7c-0.3,0.1-0.8,0-1-0.2c-1.9-0.9-3.1-0.5-3.4,1.2c0.1,0.1,0.3,0.2,0.5,0.3C87.6,25.7,88.3,25.7,89.2,25.5zM109.7,39.5l-0.1,1.6l-0.9,1.1c1.2,0.2,2.4,0.4,3.6,0.7c0.8-0.8,1.8-1,2.9-1c0.8,0.2,1.5,0.2,2.3,0.2l-0.3-0.7c-2.4-1.1-4.8-1.9-7.4-2.3L109.7,39.5zM108.9,20.8c-0.1-0.2-0.1-0.3-0.2-0.5c-0.3-0.7-0.8-1-1.5-1c-2.5-0.9-5-0.7-7.3,0.4l0.1,1.2C102.9,22.3,105.8,22.3,108.9,20.8zM91.3,30.9c0.6,0,1.1-0.1,1.7-0.2l0.2-1.5L92,28.8l1.2-0.8c-1.3-0.4-2.5-0.5-4-0.5c-0.2,0-0.4,0.2-0.7,0.2l0.2,1.3l-1.9,0.4C88.1,30.5,89.6,30.9,91.3,30.9zM115,26.1l0.2-0.3c-0.3-0.6-0.8-0.8-1.3-0.8c-4.3-0.1-8.8-0.2-13.2-0.2c0.3,0.3,0.6,0.5,1,0.7C106,27,110.4,27.2,115,26.1zM97.2,27.8c-1.3,0.9-1.5,1.8-0.9,2.4l1.2-0.1c0.2-0.1,0.3-0.2,0.4-0.3c1.7-0.1,3-0.8,4-1.9l-2-0.4C98.9,27.2,97.9,27.3,97.2,27.8zM107.4,23.9c0.6,0.4,1.3,0.7,2.2,0.5c0.7-0.2,1.3-0.2,2.1,0c3,0.4,5.6-0.3,8.1-2c0.5-0.3,1.1-0.7,1.8-0.9c5-1.4,9.9-3,15-4.3l-4.4-0.2c-2.3,0.2-4.6,0.2-6.9-0.2c-5.7-0.1-11.2,0.5-16.4,1.9l0.9,2.9L107.4,23.9zM330.5,114.8v-0.4l-2.5-3.3c-0.9,0.9-1.2,1.9-1.2,3c0,1.2,0.6,2.1,1.7,2.4L330.5,114.8zM233.1,73.6l1.7-0.7l0.2-1.7l-0.3-0.5h-1.8C232.5,71.6,232.8,72.6,233.1,73.6zM307.2,18.9l-3.2,0.9l3.2,0.2V18.9zM303.9,18.6c-1.5-0.5-3-0.2-3.9,1.1c-0.2,0.2-0.3,0.2-0.4,0.4C301.4,20.7,302.9,20.2,303.9,18.6zM280.5,155.2c0.3,1.5,1.2,2.1,3,1.6c1.4-1.6,2.2-3.6,2.6-5.6c0.7-3.3,1.2-6.5,1.6-9.8c0.1-0.9-0.3-1.5-1.1-1.8l-7.3,6.9c0.6,2,0.8,4,0.7,6.1C280.1,153.6,280.2,154.4,280.5,155.2zM209.5,57.6c1.5-0.2,2.8-0.7,3.9-1.3c0-0.2,0-0.3,0.1-0.5c0.2-1.2,0.4-2.2,0.6-2.9l-2.5-0.6l-0.5,0.1l-0.7,1.2l-2.1,0.5v0.5c0.1,0.6,0,1-0.2,1.4c-0.4,0.5-0.4,1-0.2,1.4C208.3,57.8,209,57.8,209.5,57.6zM217.7,54.6l-2.1,0.8l-0.9,2.1l0.5,0.9l-0.4,1.4l8-1.9l1-2.2c-3-1.1-4.4-3-4.6-5.7c0-0.4,0.1-0.8,0.2-1.1l-2.1-0.5l-0.7-0.9l-0.4-0.1c-1.4,0.7-2.1,1.9-2.1,3.5C214.9,52.5,216,53.7,217.7,54.6zM298.5,19.1h-2l-0.4-0.3c-1.2,0-2.2,0.1-3.2,0.5c0,0,0,0.1,0,0.2c1.9,0.2,3.9,0.4,5.5,0.4L298.5,19.1zM290.2,31l10.1,0.8l-0.2-0.4c-1.4-0.1-2.8-0.8-3.7-1.9c1.5-2.1,3.6-3.3,6.6-3.6c3-0.2,5.7-0.4,8.6-1c-0.1-0.2-0.2-0.4-0.5-0.4c-5.5,0-10.9,0.7-16.2,2.1c-1.5,0.4-2.9,1.3-3.7,2.8C290.6,29.8,290.5,30.4,290.2,31zM238.6,21.8l5.7,1.4l1.4-1.1l6.3,0.1l-1.4-0.9c1.6,0.2,3-0.1,3.9-1c-2.5-0.8-5.2-1-7.8-0.6l-0.9,1.1l-1.2-0.2l-0.9,1l-1.6-0.1l-0.1-0.2c0.2-0.1,0.2-0.1,0.5-0.2l0.2-0.6l-1.1-0.5l-1.6,0.9l-1.5-0.5l-0.4,0.1l-0.2,0.4l0.2,0.6L238.6,21.8zM291.6,20.1c-0.2-0.1-0.2-0.2-0.3-0.2c-3.2-1.1-6.2-1.2-9.1-0.6C285.2,20.2,288.4,20.5,291.6,20.1zM124.9,97.9l-1.9-1.5c-1-0.5-2.1-1-3.1-1.5c-2.9-1.4-5.4-1.3-7.7,0.2v0.7c0.9,0.5,1.8,0.5,2.5,0.2c2.5-1.1,4.3-0.4,5,2.1C121.7,98.8,123.4,98.8,124.9,97.9zM19,48.1l4-2.1l-1.4,1.6l0.5,1.1l6.3-1.6l-0.1-1.2l0.9-0.6c5.4,2,11,3,16.7,2.6l1.9,3.4l-0.7,1.2l1.1,1.1l0.9-1.2l5.3,5.4l-0.9,1l4.6,2.4l1.6,11.1l1.2,0.2c3.6,4.9,7.4,9.9,11.4,14.9L71.8,88l8.5,8.2l-0.4-1.9c-4-3.3-7.1-7.1-9.8-11.5l2.2,0.9c1.4,3.1,3.5,5.5,6.4,7.3l-0.5,0.4l5.6,4.6l0.7,2.1l6,2.6L91,102l6.9,2.3l0.6-1h1.1c2.2,1.8,4.6,3.3,7,4.6c0.8,0.3,1.3,1,1.9,1.9c1.2,2.2,3,3.9,5.3,4.7c1.9,0.9,4,0.9,6,0.1l1.2,0.3l0.1,4.9l-1,1.4l-0.9,0.3c-1.3,2-2.2,4.2-2.9,6.4l1.5,0.4l-0.1,0.8l-1.8,0.7l-0.4,0.5c2.5,3.9,5,7.8,7.4,11.9c1.6,3,4,5,7,6.1c-0.2,3.7-0.4,7.5-0.9,11.2l-0.9,0.6c0.4,3.6,0.2,7-0.9,10.6l-0.9,0.5v1.3l-0.9,0.2c-0.1,1.2,0.1,2.5,0.5,3.7c0.2,0.8,0.4,1.5,0.4,2.3l0.6,0.7l-0.2,0.9l-1.1,0.1l-0.5,0.3c0.9,1.5,0.9,3,0,4.3l-1.1,0.3v2l1.3,1.4l-0.4,1.2l0.2,0.7l1.2,0.2l0.2,0.2l0.2,2.2l2.2,1.7l1.8-0.7c2.5,2,5.3,2.4,8.4,1.2L139,195l-4.1-1.9l0.3-1.9l-1.8-0.4l-0.3-0.6l0.3-0.7c2.1-0.9,3.5-2.2,4.2-4.3c-1.4,0.2-2.4-0.4-3.1-1.6c-0.1-0.1-0.1-0.2-0.2-0.4l2.2-0.7l0.4-2l2.1-1.3l-0.5-0.9c-1.3,0.2-2.2-0.4-2.9-1.6l4.8-0.2c0.3-0.8,0.3-1.5-0.1-2.2c2.1,0.3,4,0.2,5.9-0.1c1.5-0.3,2.3-1.3,2.5-3c-0.8-0.5-1.1-1.3-1.2-2.2l-0.9-1c1.2,0.9,2.2,0.9,3.3,0.2c2.1-1.3,4.2-2.9,6.1-4.4c1.4-1.1,2.3-2.5,3-4c0.2-0.9,0.2-1.6-0.1-2.6c2.5-1.2,5.1-2.4,7.7-3.6c0.7-0.4,1.2-0.8,1.7-1.3c1.3-1.5,2.2-3.3,2.4-5.1c0.2-0.8,0.2-1.5,0.3-2.2c0.4-2.9,1.8-5.2,4-6.9c0.4-0.4,0.8-1,0.9-1.5c0.2-3-1.1-5.2-4.2-6.5c-0.7-0.2-1.3-0.7-2-1l-1.6-0.6h-4l-0.5,0.8l-0.6-0.3l0.2-1.4c-0.9-1.3-2-1.9-3.6-1.9H159l0.2,0.9l-0.5,0.6l-0.4-0.2l0.2-1.6l-0.2-0.3l-0.6-0.3c-1.2,0.3-2.2,0.9-3,2l-0.4-0.8l0.2-0.9c0.9-0.1,1.5-0.5,1.9-1.2c-0.9-3.7-3.3-6.2-6.7-7.4c-0.3-0.1-0.8-0.1-1.2,0c-1.5-0.2-2.6-0.9-3.6-2.2c-1.5-2-3.3-3.3-5.6-3.7c-0.9-0.2-1.8-0.1-2.6,0.2l-0.2-2.2l-0.6-0.3l-0.4,0.2l-1.2,1.4c-1-0.2-1.9-0.9-2.6-1.8c-1.5,0.7-2.4,1.8-2.9,3.3c-0.5-1.3-0.3-2.5,0.6-3.8c-1.4,0.4-2.9,0.9-4.2,1.4c-0.5,0.3-1.1,0.6-1.6,0.7c-0.1,1.2-0.8,2.4-1.8,3.3l0.2,1.2l-2,0.6l1.1-0.7l0.1-0.4c-2.6-0.2-5.3-0.9-7.9-1.8c-0.2-0.1-0.3-0.3-0.2-0.6c0.1-1.2,0.2-2.3,0.4-3.6c0.1-1,0.1-2.1-0.2-3.1c-1.9-0.9-3.9-1.4-5.8-1.5l2.5-6.7l-0.3-0.3c-3.1-0.8-5.2,0.1-6.3,2.5c-0.2,0.5-0.6,0.9-0.9,1.2c-2.3,1.2-4.4,0.9-6.4-1.3c-2.4-2.8-2.6-5.7-0.8-8.8c0.6-1,1.3-1.6,2.3-2.1c1.5-0.9,3.4-1.2,5.2-0.8l0.3,0.4l1.3-0.1l0.1-1.4h5.2l0.3,0.8l1.2,0.2l0.2-0.4l0.9-0.2c0.7,1.6,1.2,3.3,1.9,4.9c0.9,1.2,1.9,1.7,3.3,1.5c0.3-3.1-0.2-6-1.7-8.8l2.8-2l0.4-0.9c1.9-0.6,3.5-1.5,4.9-3c-1.1-1.1-1.4-2.2-0.9-3.5l1.2-0.2l0.3-1.5c2.3,0.2,4.5-0.4,6.5-1.5l-1.2-0.9l-0.1-0.9c0.9-0.5,1.4-1.2,1.5-2.2l3.7-1.2c-0.8,0.9-0.8,1.9-0.1,2.6c1,0.1,1.9-0.4,2.4-1.3c1.8,0.2,3.3-0.3,4.6-1.5l-0.3-1c-2.2,0.6-4-0.2-5.3-1.9c-0.3-0.6-0.6-1.1-0.8-1.8v-0.4c-2.5-0.2-4.8,0.3-6.9,1.9c4.2-3.3,9-4.6,14.3-4.2c0.2,0.2,0.5,0.2,0.8,0.1c0.5-0.3,0.9-0.9,0.9-1.5c1.2-0.2,2-0.7,2.6-1.5c-1.1-2.5-3-4-5.9-4.5c-0.2,0-0.2-0.1-0.3-0.3c-0.6-2.1-1.3-3.6-2.9-4.7c-1.4,0.9-3,1.5-4.5,1.8c-1.9-1.7-3.6-3.3-5.1-5.2c-2.9-1.5-5.6-2.3-8.5-2.6l-0.5,0.5c0.9,1.5,1,3.2,0.3,4.8l0.9,1.5l-1.5,2.2l0.2,0.3c1.2,0.4,1.6,1.2,1.3,2.4l-3.2,2.1l0.2,4l-1.9,0.6l-2.8-4.6c-3-0.5-5.8-1.5-8.5-2.6c-0.5-0.2-1.2-0.3-1.9-0.2c-2.6-0.4-4-1.9-4.2-4.3c0-1.2,0.4-2.1,1.5-2.6c0.9-0.4,1.9-0.9,2.9-1.2c2.1-0.9,3.5-2.5,4.3-4.6c2.1-0.1,4.2-0.2,6.3-0.7l0.2-0.9l-1.2-1l0.8-0.9c-1.4-1-3.3-1.2-5.3-0.8l0.5,1.5l-1.9,0.9c-2.9-0.8-5.4-1.9-7.8-3.6c-1.5-1-3.1-1-4.6,0.2c1.1,0.6,2.1,1.2,3.1,2.1c0.1,0.2,0.2,0.3,0.3,0.6L96,36.1v0.8c-1.1-0.9-2.3-1.2-3.8-1.2c-2.2,0.2-4.3,0.4-6.5,0.7l-0.5-0.7h-5.7l0.9,0.7h-8L72,35.1c-5.8-1.5-11.8-1.9-17.7-1.1c-2.8-0.2-5.6-0.2-8.5,0.2c-1.6,0.3-3.4,0.5-5.2,0.4c-10.3-1.2-20.8-1.3-31.1-0.2c-1.6,0-3.3,0.2-4.7,0.5l6.5,4.6l-8.9,0.5l1.2,2l6.2-0.3v0.8l-6,2.2L5,47.3L8,47.6l-0.3,1.6l1.9,0.4l0.6-0.9l0.7,0.8l3-0.3L0,55.3l0.3,1.3l19.1-7.6L19,48.1zM67.4,29.6c1.3-0.7,2.8-1.4,4.2-2.1l-0.1-0.4c-2.9-0.9-5.6-1.1-8.4-0.2c-1.3,0.4-2.4,1.3-3.1,2.6l0.2,0.9C62.5,31.1,64.9,30.8,67.4,29.6zM83,22.3C83.2,22.3,83.2,22.3,83,22.3c-1.9-0.6-3.7-0.2-5.6,0.7l0.1,0.9C79.5,24.1,81.4,23.6,83,22.3zM79.8,29.6c-1.9,0.1-3.5,0.1-5.4,0.1c-1.9,0-3.6,0.2-5.4,0.4l-0.9,1.4c2.2,3,5.4,4.1,9.6,3.3c1.5-0.2,3.1-0.2,4.6-0.1c2.4,0.1,4.7-0.5,6.8-1.5l0.2-0.6c-2.6-0.3-4.6-1.9-5.8-4.5C82.3,28.9,81,29.5,79.8,29.6zM94,33.9l-2.8-0.5l-1.2,0.9l4.3,0.2L94,33.9zM72,25.3l1,1.5h0.7l1.4-0.9h0.6v1.2c2.9-0.2,5.7-0.5,8.4-0.9c0.4-0.2,0.7-0.3,1.1-0.5c-2-1.9-4-1.9-5.7-0.1c-1.5-0.8-3-1.5-4.6-2.3L66.7,24l-0.3,0.5l0.9,1L72,25.3zM134,100.9h2.1V100H134V100.9zM119.4,100.1l2.9,0.7l0.1-0.5l-3-0.7V100.1zM128.8,101.3c1-0.9,2.2-1.3,3.7-1.2l-0.3-1c-1.8-1.2-3.6-1.6-5.7-1.5l-0.4,0.8l0.5,1.4c-1.1-0.1-1.9,0.1-2.5,0.5l0.5,0.3C126.2,100.1,127.5,100.4,128.8,101.3zM417.3,176.9c-1.1,0.3-2.2,0.7-3.2,1l-0.2,0.9l1,0.8l0.2,2.1l0.4,0.1c0.2-0.1,0.5-0.1,0.7-0.2c1.8-0.9,2.3-2.3,1.8-4.3L417.3,176.9zM399.3,80.9c-1-0.4-1.9-0.2-2.4,0.8l0.2,1.2l2.2-1.2V80.9zM422.6,131.8l0.4-1.2l-0.5-0.2l-1.1,1l-2.6,0.1l-0.2,0.8C420,133.2,421.4,133.1,422.6,131.8zM411.6,60.8l1,0.8l-3.3-9c0,3.7,0.2,7.5,0.9,11.2l2.1,0.7l-1.5-2.5v-1.2L411.6,60.8zM417.5,134.9c-0.9-2.8-2.8-4.8-5.4-6c-2-1.1-4.2-1.9-6.5-2.4c-0.4-0.1-0.9-0.1-1.2,0.2c-1.5,0.9-3.2,1.3-4.6,1.2v-1.8l-0.9-0.9l-5,0.2c0.8,1.6,2.1,2.5,4,2.2l-0.4,0.7l-0.9,0.1l1,1.9l0.3-0.8l0.5-0.3l0.9,0.4l0.3,0.7c1.4-0.1,2.9,0.2,4.1,0.9l1.1,3l-1.5,0.9l0.7,0.9l0.5,0.2c0.5-0.7,1.2-0.7,1.9-0.3c0.2,0.2,0.4,0.4,0.7,0.8l1.3,0.4l1-0.6l0.8,0.6l-0.2,1l1.6,1.1l-0.2-2l0.7-0.9l-0.4-1.1l2.3-0.4c0.1,0.2,0.2,0.5,0.3,0.9c1.3,2.3,3.3,3,5.8,2l-0.2-1.8C418.9,136.4,418,136.2,417.5,134.9zM400.5,78.3c-2.6-0.5-4.6,0.2-6,2.5c-1,1.9-0.8,3.3,1,4.2c0.2-0.3,0.3-0.7,0.5-1c0.5-1,0.7-2,0.2-3.1c0.9-0.9,2.1-1.2,3.3-0.9l1.7,2.6c1.2-1.2,2.4-2.1,4.1-2.6c3.8-1.2,5.3-3.7,4-7.9v0.4l-0.9-1.2l-0.9-0.1l-1.9,4.4C403.7,76,401.9,76.9,400.5,78.3zM451.7,168.3c-0.9-1-1.4-1.4-1.9-1.2c0,0.1,0.1,0.2,0.1,0.2c1.2,1.4,1.9,3.1,2,4.9c-0.7,2.2-0.5,4.4,0.4,6.6h0.7c1.6-1.6,2.9-3.5,3.4-5.6l-2.8-1.1C453.3,170.8,452.5,169.5,451.7,168.3zM470.2,37.5c-2.2-0.3-4.4-0.9-6.4-1.4c-6.8-2.2-13.6-2.8-20.6-1.5l-0.3,0.5c-2.5-0.7-4.8-0.7-7.4-0.1c-0.9-0.9-1.9-1.5-3.2-1.8c-0.9,0.1-1.8,0-2.5-0.2c-7.5-1.6-15.2-2.5-22.9-2.3l-0.9,1.2l-12.8,0.4l-0.4,0.7h-0.8v-0.5c0-2-1.1-3-3.3-3c-1.2,0.1-2.5,0.1-3.7,0.1c-2.5,0-5-0.2-7.4-0.5c-5.7-0.2-11.4,0.3-16.9,2.1c0.1-0.2,0.2-0.5,0.5-0.8c0.2-0.3,0.4-0.5,0.6-0.8c0.5-0.4,1-0.5,1.5-0.5c2.5-0.5,4.9-1.2,7.5-2.1l0.2-1.3l-1-0.9c-2.4-0.2-4.8-0.2-7.3-0.4c-3.7,0.4-7.4,0.2-11.1-0.6l0.7-1.2c1.5,0.3,2.8,0.1,3.7-0.7l0.2-1.1c-2.5-0.9-5.3-1.1-8-0.7l-0.7,1.1c-0.8-0.8-3.4-1.4-5.9-2v1.9c-0.6,0.1-0.9,0.2-0.9,0.3c-1.3,2.4-2.2,3.6-2.5,3.6c-0.5,0.1-0.9,0.2-1.4,0.2c-1.5,0.2-3.2,0.4-4.7,0.8c-0.1,0-0.2,0-0.2,0v0.3c-0.6,0.1-1,0.2-1.5,0.2l0.4,1.2c-0.5,0.2-1.2,0.4-1.9,0.5c-0.7,0.2-1.3,0.2-2,0.2l-0.5-0.4c-2.6,1.9-5.6,2.5-8.8,1.9l-0.3,0.7l2.2,3.3c-0.3-0.1-0.7-0.2-1-0.3c-2.5-0.9-4.2-2.6-5-5.3c-1.1-0.1-2.2,0.2-3,0.7c-0.9,0.5-1.4,1.3-1.5,2.2c0.3,0.4,0.6,0.8,0.9,1c1,1,2.1,1.6,3.3,2.1c-4.3-0.7-8.8-1.2-13.3-1.5l0.2,1.4c-3.1,0.5-6,0.7-9.2,0.5c-0.8,0-1.4,0.1-2.2,0.3c-2,0.9-4.1,1.3-6.3,1.3c-0.5,0-0.9-0.2-1.3-0.4c-2.2-1.8-4-1.2-5.1,1.5c-2.2,0.8-4.3,1.8-6.4,3.1l-2.9-0.9l-1.2-2.5c0.4,0.2,0.8,0.3,1.1,0.5c2.5,0.9,5,0.8,7.1-0.7c-0.3-0.4-0.7-0.7-1.1-0.9c-4.8-1.5-9.7-2.9-14.6-3.7l-0.2-0.2l-3.5,0.5l-0.4-0.9l-4.3,0.6l-0.2,0.4l-1.8,0.3l-0.7-0.4l-2.9,0.9l-0.3,0.9c-0.9-0.2-1.8-0.1-2.4,0.2c-0.4,0.2-1,0.4-1.4,0.6l1.1,0.8l-3.2,2c-2.8,2.3-5.8,4.2-9.2,5.4c-0.3,1.5,0.1,2.9,1,4c1,1.4,2.2,1.5,3.4,0.7c0.6-0.3,1.1-0.5,1.9-0.5c0.2-0.2,0.6-0.2,0.6,0c1.5,1.6,3.3,3.2,4.9,4.6l3.3-1.2l0.4-3.1l2.2-1c0.2-0.9-0.1-1.6-0.8-2.2c-0.5-0.2-0.7-0.6-0.5-1.2c0.2-1.5,1.2-2.5,2.9-2.6c0.7-0.9,1.5-1.5,2.3-2.1c1.2-0.6,2.4-0.6,3.4,0.2c-0.1,0.2-0.2,0.4-0.3,0.6c-0.4,0.9-1.2,1.5-2,1.9c-0.5,0.1-0.9,0.2-1.3,0.4l-0.3,0.9c0.1,0.4,0.2,0.8,0.3,1c1.2,1.9,3,2.5,4.9,1.8c2.2-0.8,3.9-0.6,4.8,0.8c-2.8,0.5-5.5,1-8.5,1.4c0.1,0.6,0.2,1.3,0.2,1.9c0-0.1,0-0.1-0.2-0.1c-0.5,0-1-0.1-1.5-0.1c-0.3,0-0.5,0.1-0.8,0.2c-0.2,0.2-0.5,0.2-0.7,0.3l-0.4,2.4c-0.9,0.2-1.9,0.5-3,0.7c-3.2,0.9-6.3,0.9-9.5,0.2l2.1-0.5v-1.3h-1.4c-0.1,0-0.2,0-0.2,0.1c0,0.1,0,0.2-0.1,0.2h-0.3c0,0-0.1,0-0.2,0c-0.1-0.8-0.1-1.3-0.2-2l-2.8,1.1l0.9,2.5l-0.4,0.9l-3-0.2c-0.9,1-1.6,1.9-2.6,2.8c-0.9,0.8-1.9,1-3,0.9L224,59l-2.3,0.9l-1.6-0.5l-0.3,0.2l-0.5,1.3c-0.8-0.2-1.4-0.3-1.9-0.3c-0.3,0-0.5-0.1-0.8-0.1c-0.3,0-0.5,0-0.9,0.1l-0.2,0.5c0.1,0.2,0.2,0.2,0.3,0.3c0.2,0.2,0.6,0.3,0.8,0.4c0.2,0.1,0.2,0.1,0.4,0.2c0.3,0.1,0.6,0.1,0.9,0.1l1.4,1.5l1.2,0.3l-0.8,3l-0.7,0.3c-3.6-1.2-6.9-0.8-9.8,1.2c0.4,1.2,0.4,2.4,0,3.6c-0.2,0.5-0.8,1.2-1.2,1.8l0.7,0.2l0.2,1.9l0.4,0.3c0.9,0.1,1.6,0.2,2.5,0.3c0.9,0.2,1.5,0.6,2.3,0.8l1.7-0.9c0.7,0.1,1.4,0.1,2.2,0c1.2-0.3,2.2-0.9,3.3-1.5l-0.2-2.1c0.3-0.2,0.7-0.6,1.1-0.9c1-0.9,2.2-1.4,3.5-1.9l0.2-2c0.4-0.4,0.9-0.6,1.5-0.6c2.3-0.3,4.8-0.5,7.1-0.3c0.4,0.6,0.9,0.9,1.4,1.2c2.3,1.2,4.6,2.8,6.7,4.4V75c0.8,0.2,1.2-0.2,1.2-0.9c0.1-0.8,0.2-1.3,0.2-2c0.8,0.3,1.4,0.5,2.2,0.7v-0.2c-3.4-1.9-6.4-4.3-9-7.4c0.3-0.1,0.6-0.2,0.8,0c3.1,1.5,6.1,3.3,8.8,5.2c-0.1,0.8,0.1,1.5,0.8,2.2c0.1,0.1,0.2,0.1,0.4,0.1c0,0.1,0.2,0.2,0.2,0.2l1.7,1.5l0.2,1.2l2.2,0.9l0.9-1.5l1.5-0.1l-2.5-3c0.7-0.5,1.4-0.7,2.3-0.3c0.6,0.2,1,0.4,1.4,0.7l-0.2,1.9l1.2,0.7l0.9,1.4c0.5,0.1,1.1,0.2,1.6,0.2c3.2,0.3,6.5,0.4,9.8,0c-0.2,0.7-0.2,1.3-0.3,1.9c-0.4,1.9-1.2,3.5-2.5,5c-5.2,0.8-10.2,0.2-15.1-1.5c-0.5-0.2-1-0.2-1.5-0.1c-1.4,0.1-2.2,1-2.4,2.5c-2.1-0.1-4-0.8-5.7-1.6c-0.6-0.3-1.1-0.5-1.7-0.8c-3.3,0-4.6-1.6-4-4.7l-0.3-0.7c-1.2-0.5-2.5-0.7-4-0.5c-1,0.1-1.9,0.1-3-0.1c-2.9-0.3-5.3,0.4-7.1,2.2c-2.4,0.2-5,0.2-7.4,0l-0.2,0.9l-4.8,3.5c-0.2,1.1-0.4,2.2-1,3.1c-0.9,1.6-2.2,2.5-4.2,2.8l-0.4,1.2l-0.7,0.7v1.1c-1.2,1.2-2.4,2.4-3.5,3.7c-0.1,0.2-0.2,0.2-0.2,0.6c1.1,3.2,0.9,6.4-0.6,9.5c0,0.2,0.1,0.3,0.2,0.5c0.1,0.8,0.2,1.5,0.4,2.2c0.1,0.3,0.2,0.5,0.4,0.8l0.7,0.1c0.7,0.8,1.2,1.5,1.6,2.4c1.3,3,3.6,5,6.7,5.7c0.4,1,1.1,1.6,2.1,1.8c2-0.2,4-0.5,5.9-0.9c3.6-0.9,7.4-1.2,11.2-1.2c0.3,1.2,1.2,2,2.4,2.2c0.8,0.2,1.5,0.1,2.2-0.2c0.9,0.5,1.5,1.4,1.8,2.4c0.4,1,0.3,2.1-0.1,3.1l-0.5,0.9c0.2,0.9,0.5,1.9,1.3,2.5c2.6,2.8,4.1,5.7,4.1,9.2l0.7,1.1c-0.1,0.5-0.2,1-0.4,1.3c-1.1,2.1-1.8,4.1-2.3,6.1c-0.1,0.5,0,0.9,0.2,1.2c2.2,3.4,3.4,7.1,3.9,11.3l0.4,0.2l0.4,2.4c1.8,1.7,3,3.6,3.6,6.1l-0.4,1c0.1,0.2,0.2,0.3,0.3,0.6c0.8,1.2,1.7,1.9,3,2.1c1.1-0.1,1.9-0.7,2.3-1.5c1.1,0.1,2.2,0.1,3.3-0.2c6.1-1.5,9.8-5.3,11.2-11c0.2-0.2,0.4-0.2,0.5-0.2c0.6-0.3,1.1-0.7,1.6-1.2c0.4-0.4,0.7-1.1,0.8-1.8c0.1-1.1-0.2-2.1-0.7-3c1.6-2.3,3.8-4.1,6.4-5.3l0.3-0.5c1.8-1.4,2.1-3.3,1.2-5.7c-0.7-1.5-1-3.3-1.2-4.9c0-0.6,0-1.2,0.2-1.8c1.3-4.9,4.2-8.6,8.6-11.1c0.6-0.2,1-0.7,1.4-1.2c2.6-3.1,4.7-6.7,6.4-10.5l-0.4-0.9c-1.4,0.2-2.9,0.6-4.2,0.9c-1.5,0.1-2.8-0.4-4-0.9c-3-1.1-5.7-1.9-7.7-4.7c-0.2-0.2-0.2-0.4-0.3-0.7c-0.2-0.7-0.6-1.2-1.1-1.6c-1.9-1.8-2.8-3.9-2.8-6.4c-0.2-0.1-0.4-0.2-0.5-0.3l-1.7-1.6l-0.2-1.5c-0.3-0.3-0.6-0.7-0.7-1c-0.8-1.5-1.9-2.9-3.1-4l1.6-0.7c0.2,0.2,0.4,0.4,0.7,0.5c1.4,1.3,2.4,3,3.1,4.6c0.5,0,1.1,0.2,1.5,0.8c0.4,0.7,0.9,1.3,0.9,2.2c0.2,1.5,1.2,2.5,2.6,3c1.2,2.5,2.2,5,3.2,7.5c0.4,1.1,1.2,1.8,2.2,1.9c3.4-0.4,6.6-1.5,9.5-3.5c0.5-0.3,0.9-0.5,1.5-0.8c4.6-1.4,7.3-4.4,8-8.8c-0.2-0.2-0.4-0.3-0.7-0.4c-1.8-0.8-3.3-1.9-4.4-3.5c-0.4,0.3-0.9,0.7-1.2,1c-0.9,0.9-1.8,1.1-2.8,0.9c-1.4-0.3-2.3-1.2-2.5-2.8l-0.9,1.6c-0.1-0.5-0.2-0.9-0.4-1.3c-0.4-0.9-0.9-1.8-1.5-2.3c-0.8-0.7-1-1.5-0.7-2.6l0.4-0.2c0.1,0.1,0.2,0.1,0.3,0.2c2.9,3.3,6.5,5,10.8,4.8l0.2,0.5c2.8,1.1,5.6,1.2,8.5,0.6c3-0.6,5.5,0.5,7.4,3.2l1.7,0.3l-1.5,0.8c0.1,0.1,0.2,0.2,0.2,0.4c0.6,0.9,1.4,1.4,2.5,1.3c0.3-0.1,0.7-0.2,1.1-0.3l0.2-1.5h0.8c0.2,3.2,0.9,6.4,1.9,9.5c0.4,0.2,0.8,0.7,1,1.2c0.2,0.8,0.5,1.4,0.8,2.1c0.2,0.1,0.2,0.2,0.3,0.3c1,1.2,1.8,2.5,2.3,4c0.5,1.3,1.4,1.6,2.8,1c0.5-1.1,1-2,1.5-3.1c0.2-0.3,0.5-0.7,0.9-1c-0.1-1-0.2-1.9-0.3-2.9c-0.1-0.9,0.2-1.7,0.8-2.3c0.7-0.7,1.2-1.5,1.9-2.2c0.6-0.4,0.9-0.9,1.4-1.3v0.4c0.2-0.2,0.4-0.6,0.5-0.8c0.3-0.4,0.9-0.9,1.3-1.2l1.5-1.2c1.2-0.9,2.5-1.4,4-1.9c0.3-0.1,0.9-0.2,1.4-0.3c0.1,0,0.5-0.1,1.1-0.1v2.9c1,0.2,1.9,0.4,2,0.7c1.4,1.9,2.2,4,2.3,6.2l4-0.1c0.8,1.2,1.2,2.6,1.2,4.3l1.2,0.9v5.2c0.9,0.7,1.8,1.5,2.4,2.5c0.2,0.2,0.2,0.5,0.4,0.9c0.2,0.6,0.4,1.1,0.5,1.5c0.2,0.5,0.3,1,0.7,1.4c1.1,1.2,2.3,2.3,3.6,3.4c0-0.2,0.1-0.4,0.2-0.7c0.2-1,0.1-1.9-0.4-3c-0.4-0.9-1-1.6-1.8-2.2c-3.2-2.8-4.5-6.2-4-10.1c0.3,0,0.5,0,0.9,0.1c0.2,0,0.4,0,0.7,0.1c0.2,0.1,0.5,0.2,0.7,0.3c0.4,0.2,0.8,0.6,0.9,0.9c1.1,2.4,2.8,4.1,4.9,4.9l0.9-0.9l0.2-1.6l0.7-0.6c1.2,0.1,2.3-0.2,3.3-1.1c-0.5-3.4-1.8-6.5-3.9-9.2c-1.5-2.2-1.1-3.7,1.5-4.6l0.6,0.6l-0.4,2.3l1.1,1.2l1.2-0.3c0.2-2.5,1.5-3.9,4-4.1c3-0.4,5.4-1.6,7.4-4c1.5-1.9,2.8-4,3.9-6c0.9-1.6,0.3-2.6-1.5-3.3l-0.9-4.1c1.1-0.7,2-1.5,2.5-2.6l-0.4-0.2c-1.5,0.5-3,0.2-4.2-0.7V75l4-3l-0.2,2.4l0.3,0.4h0.4c1.3-1.1,2.8-1.4,4.2-0.9l-0.5,2.2l1.5,0.6l0.5,4c0.8,0.5,1.4,0.5,2.2,0.2c0.3-0.2,0.5-0.4,0.8-0.8c0.9-0.9,1.2-2.1,0.8-3.4c-0.1-0.6-0.2-1.1-0.2-1.5c0-2.1,0.9-3.7,2.5-5.2c0.5,0.1,1,0.1,1.4,0.2c0.9,0.1,1.5-0.1,2.4-0.4c3.6-2,6.4-4.6,8.6-7.8c0.5-0.9,0.9-1.9,0.7-3c-0.4-3.5-2.4-4.9-5.8-4.4c1.8-2.2,3.9-3.9,6.4-4.7c3.3-1.2,6.7-1.5,10.1-1.2c1.9,0,3.5-0.4,5-1.2c2.6-1.3,5.6-2.3,8.6-3.2c0.2,0.5,0.3,1,0.4,1.5c0.2,1-0.1,1.8-0.9,2.2c-1.2,0.7-2.2,1.5-3.3,2.5c-1,0.9-1.4,2.1-1.2,3.3c0.6,2.5,0.2,4.8-1.2,7c2.1-0.4,3.6-1.5,4.7-3.4c0.8-1.3,1.6-2.3,2.9-3.2c1.3-0.9,2.3-2.1,3.2-3.6c0.2-0.5,0.2-0.9,0.2-1.4c-0.5-2.3,0-4,1.8-5l0.8,2.4c1.1,0.1,2.2,0.2,3.2,0.2c1,0,1.9-0.2,3-0.4c4-1.2,8.1-2.1,12.2-2.5l0.5-0.5l0.2-0.6l-1.4-1.5c0.5-0.5,1.1-0.9,1.5-1.2c0.4-0.2,0.9-0.5,1.3-0.7c2.5,0.3,5,1.2,7,2.8c0.2-0.1,0.4-0.2,0.7-0.2c1.5-0.7,2.5-1.9,3-3.6L470.2,37.5zM375.8,136.5l0.4,0.8c0.2,0.1,0.5,0.1,0.8,0.1c1.2,0.2,2.1,0,2.6-1h-2.9C376.4,136.4,376.1,136.5,375.8,136.5zM448.4,177.8c-1.9,2.2-4,4.3-6.4,6.1c-1.2,1-1.2,1.9,0,2.9c1.4,1.1,2.5,0.7,3.6-1.2c0.7-1.5,1.9-2.4,3.7-2.6l-0.1-1.6c0.1,0,0.2-0.2,0.2-0.2c0.8-0.2,1.2-0.7,1.3-1.5C450.5,178.2,449.6,177.5,448.4,177.8zM362.9,130.9c-0.3-0.5-0.5-1.2-1-1.9c-3.1-5.1-7.4-9-12.8-11.7l-0.5,0.3c0.4,0.9,0.9,1.5,1.5,2.4c1.2,1.9,2.5,3.6,3.6,5.4c4.7,7.5,11.5,11,20.4,10.5c-1.9-1.2-4-1.9-6.1-1.9C365.6,134.2,363.9,133.1,362.9,130.9zM407.2,69.1c-0.4,0.4-0.7,0.9-0.7,1.3l5,0.2c0.1-0.2,0.3-0.4,0.5-0.6c1.2-0.7,2.2-1.5,3.3-2.5l-0.6-0.7c-1.9,0.2-3.5-0.5-4.8-1.8l-0.4,0.2l-0.8,2.8C408.2,68.3,407.8,68.6,407.2,69.1zM390.8,126.7l0.5-1.9l1.2-0.6l0.2-0.5l-0.8-0.5l-0.8-1.8c-1.2,1-1.5,2.3-1.1,4.2C390.4,126,390.6,126.4,390.8,126.7zM380.3,107.5c0,0.9,0.4,1.5,1.2,1.9c0.9-1.5,2.2-2,4.1-1.3l0.5-0.8l-0.1-0.5l-3-0.4c-0.7-0.7-0.8-1.5-0.4-2.5c0.5-1.3,0.2-2.2-1.1-3c-0.2,0-0.4-0.1-0.6-0.2C380.3,102.9,380,105,380.3,107.5zM384.8,138l-0.1,0.8l0.5,0.4l5-2.5C388.4,136.5,386.5,137,384.8,138zM379.1,117.9c-0.9-0.5-1.8-0.9-2.5-1.2c-0.2-0.1-0.5-0.1-0.8-0.1l-1.9,2.5c-0.4,0.2-0.8,0.6-1,0.9c-0.6,0.6-1,0.9-1.7,1.2l-1.9,0.2l-0.9,1.2l-1.5-0.2c-1.1,0.9-1.2,2.1-0.4,3.3c0.6,0.9,0.9,1.9,1,3c2.5,1,5.3,1.5,8.1,1.2c0.5-2.6,1.9-5,3.6-6.8l-1.5-2.3c0.2-0.3,0.4-0.5,0.7-0.9C379,119.5,379.2,118.8,379.1,117.9zM383.2,91.9c-0.2-0.1-0.2-0.2-0.2-0.2c-1.5,1.3-2,2.6-1.1,4.3l0.7-1.2l-0.4-1.2l1.3-0.9L383.2,91.9zM380.6,133.2l0.4,0.1l0.7-0.3c0.1-0.1,0.1-0.2,0-0.4c-0.2-1-0.2-2,0.2-3c0.5,1.3,1.4,1.9,2.8,1.5l0.3-0.6l-1.3-2.5l1.9-1.9l-3.2,0.7c-0.1-0.2-0.2-0.2-0.2-0.3c-0.4-0.5-0.3-1.2,0.1-1.6c0.2-0.1,0.5-0.1,0.8-0.1c2.1,0.5,3.7,0,5.2-1.5l-0.4-0.2c-1.4,0.2-2.9,0.4-4.3,0.4c-1.1,0-1.9,0.4-2.2,1.3c-0.2,0.9-0.5,1.6-0.9,2.5c-0.2,0.5-0.2,1-0.2,1.5C380.2,130.5,380.3,131.8,380.6,133.2zM385.8,108.7c0.2,0.9,0.3,1.9,0.6,2.8l0.7,0.2l0.5-2.3l-0.5-0.7H385.8zM373.9,153.7c-1.5,1.9-1.9,4.1-0.9,6.4c0.5,1.2,1.1,2.2,1.5,3.3c1,2.1,1.4,4.2,1,6.4c0,0.3,0.1,0.6,0.3,0.9c0.7,0.9,1.5,1,2.5,0.9c5.4-1.5,10.8-3.3,16.1-5.1c1.4-0.6,2.9-0.4,4.1,0.5c0.7,0.6,1.2,1.1,1.8,1.5c0.7,0.7,1.4,0.9,2.2,0.9c0.5,0,1.2-0.1,1.8-0.1l-1.7,2.3l0.6,0.3c1.2-0.3,2.2-0.1,3,0.8c0.5,0.5,0.7,1.2,0.3,1.8c4,1.5,7.8,1.5,11.7-0.2c1-0.6,1.8-1.2,1.9-2.4c0.2-1.2,0.9-2.3,2-3.2c1-0.7,1.9-1.5,2.2-2.8c1.9-4.3,1.2-8.1-2-11.7c-2-2.1-4-4.3-5.9-6.4c-1-1-1.9-2.1-2.5-3.3c-0.9-2.3-2.4-4-4.6-5c-0.3-0.1-0.7-0.2-0.9-0.2l-0.4,0.2c0.5,2.2,0.5,4.4,0.2,6.6c0,0.2-0.1,0.4-0.2,0.6c-3.4,0.2-5.7-1.2-6.5-4.3c-0.2-0.6-0.2-1,0-1.5l-6.6-1.9l-1.2,1.8l-1.5,0.6l-0.1,2.9h-0.9l-0.9-0.5l-1-1l-1.3,0.2c-0.5,0.9-1.2,1.6-2.2,2.2l-0.1,1.1l-1.2,0.1c-1.7,3.6-4.6,5.7-8.6,6.6C375.1,152.6,374.4,153,373.9,153.7zM385.3,136.2c-1.8,0-3.3,0.2-4.7,0.9l0.3,0.5c1.8,0.1,3.3-0.2,4.6-1.1L385.3,136.2zM388.1,112.1l-0.5,1.4c-0.2,0-0.5,0-0.8-0.1c-2.1-0.6-3.3,0.1-3.3,2l2.4-0.3c0.4,1.2,1.2,2.1,2.3,2.5l0.5-0.4l-0.4-1.3l0.1-0.1c0.9,0.2,1.3,0.2,1.5-0.3l-1.3-3.4L388.1,112.1zM383.9,110.8c0.2,0,0.4,0,0.5-0.2c0.2-0.2,0.2-0.3,0.2-0.5s0-0.4-0.2-0.5c-0.2-0.2-0.3-0.3-0.5-0.3c-0.2,0-0.4,0.1-0.6,0.3c-0.2,0.1-0.3,0.3-0.3,0.5s0.1,0.4,0.3,0.5C383.5,110.8,383.7,110.8,383.9,110.8z"/>
  <style type="text/css">
    <![CDATA[
      .fr {fill:#388cde; opacity:1;}
      .bk {fill:#388cde; opacity:0.2;}
    ]]>
  </style>
</defs>

<g class="fr">
 <use xlink:href="#continents" x="5" y="-5"/>  
 <use xlink:href="#continents" x="478" y="-5"/>
</g>
<g class="bk">
 <use xlink:href="#continents" x="-468" y="215" transform="scale(-1,1)"/>
 <use xlink:href="#continents" x="-941" y="215" transform="scale(-1,1)"/>  
</g>

</svg>