<?xml version="1.0" encoding="utf-8"?>
<!-- Generator: Adobe Illustrator 24.0.0, SVG Export Plug-In . SVG Version: 6.00 Build 0)  -->
<svg version="1.1" xmlns="http://www.w3.org/2000/svg" xmlns:xlink="http://www.w3.org/1999/xlink" x="0px" y="0px"
	 viewBox="0 0 255 255" style="enable-background:new 0 0 255 255;" xml:space="preserve">
<style type="text/css">
	.st0{display:none;}
	.st1{display:inline;}
	.st2{fill:#B1B3B6;}
	.st3{fill:#057AF3;}
</style>
<g id="WONT_EXPORT" class="st0">
	<g id="logo-fullcolor-rgb" class="st1">
		
			<rect id="WONT_EXPORT_00000044158578946484489490000002621491885208486079_" x="-13813.2" y="-2875" class="st2" width="28346.5" height="5221.5"/>
	</g>
</g>
<g id="Layer_1">
	<g id="thiennguyen-logomark_00000129204975801655565890000009124556624901127817_">
		<path class="st3" d="M147.1,98.5c-0.3,0-0.7-0.1-1.1-0.1c-1.2,0-2.3,0.2-3.3,0.6c-0.6,0.2-1.2,0.5-1.7,0.9
			c-1.2,0.8-2.2,1.9-2.8,3.2c-0.5,0.9-0.7,2-0.8,3.1c1-0.2,1.8-0.7,2.5-1.4c0.8,0.4,1.6,0.7,2.6,0.7c2.5,0,4.6-1.7,5-3.9
			c1.4-0.1,2.6-0.7,3.4-1.6C149.9,99.1,148.5,98.6,147.1,98.5z M142.4,102.4c-0.8,0-1.5-0.4-2-0.9c0.3-0.4,0.7-0.8,1.2-1.1
			c0.2,0.3,0.5,0.4,0.9,0.4c0.6,0,1.1-0.5,1.1-1.1c0-0.1,0-0.3-0.1-0.4c0,0,0.1,0,0.1,0c0.5-0.2,1-0.3,1.4-0.4
			c0.1,0.3,0.1,0.6,0.1,0.9C145.1,101.2,143.9,102.4,142.4,102.4z"/>
		<path class="st3" d="M202.9,173.3l-4.2,19.4c-0.9,4.3-4.1,7.6-8,8.7c1.1-0.9,1.8-2.2,2.2-3.6c0-0.1,0.1-0.3,0.1-0.3v0l15.9-74.2
			c0.5-2.5,0-5.1-1.6-7.1c-1.6-2-3.9-3.2-6.4-3.2H54c-2.5,0-4.8,1.2-6.4,3.2c-1.6,2-2.1,4.6-1.6,7.1l15.9,74.1l0,0.1
			c0,0.1,0.1,0.2,0.1,0.3c0.4,1.5,1.2,2.7,2.2,3.6c-3.9-1.1-7.1-4.4-8-8.7l-4.2-19.4c-8.4,0.4-14.8,7.7-14.8,16
			c0,1.8,0.3,3.6,0.9,5.4c1,2.9,2.7,5.3,4.9,7.1c2.7,2.3,6.1,3.6,9.8,3.6h149.3c3.7,0,7.1-1.3,9.8-3.6c2.2-1.8,3.9-4.3,4.9-7.1
			c0.6-1.8,0.9-3.6,0.9-5.4C217.8,181,211.3,173.7,202.9,173.3z M171.1,135.5l-1.5,10.1c-0.5,3.1-3,5.3-6,5.3h-22.1
			c-2.1,0-3.8,1.8-3.8,4v38.4c0,1.8-1.4,3.3-3.2,3.3h-13.9c-1.8,0-3.2-1.5-3.2-3.3v-38.4c0-2.2-1.7-4-3.8-4H91.4c-3,0-5.6-2.3-6-5.3
			l-1.5-10.1c-0.3-1.5,0.1-3,1.2-4.2c0.9-0.9,2.1-1.4,3.3-1.4h78.2c1.2,0,2.5,0.5,3.3,1.4C171,132.5,171.4,134,171.1,135.5z"/>
		<path class="st3" d="M168.7,103.8c2.6-0.2,5.2-0.7,7.7-1.4c-4.3-2.5-8.1-5.7-11.4-9.5h0.2c1.8,0,3.6-0.2,5.3-0.6
			c-2.1-1.7-4.1-3.6-5.9-5.6c0.9-2.7,1.6-5.5,2-8.4c0-0.1,0-0.3,0.1-0.4c0-0.3,0.1-0.5,0.1-0.8c0-0.4,0.1-0.7,0.1-1.1
			c0-0.2,0-0.5,0.1-0.7c0-0.4,0.1-0.8,0.1-1.2c0-0.2,0-0.4,0-0.6c0-0.6,0.1-1.2,0.1-1.9c0-0.6,0-1.2-0.1-1.8v-0.4
			c-0.3-7.2-2.3-13.9-5.4-19.9c-2.3,0.6-4.5,1.4-6.7,2.5c-0.6,0.3-1.1,0.6-1.7,0.9c-4.4,2.5-8.4,5.8-11.5,9.8c-0.8,1-1.5,2-2.2,3
			c-0.1,0.2-0.2,0.3-0.3,0.5c-1.9,0.5-3.7,1.2-5.4,1.9c0.8-1.6,1.7-3.1,2.6-4.5c-3.2,0.8-6.2,2-9,3.6c-2.8-1.6-5.8-2.8-9-3.6
			c1,1.4,1.8,2.9,2.6,4.5c-1.7-0.8-3.6-1.4-5.4-1.9c-0.1-0.1-0.2-0.3-0.3-0.5c-0.7-1.1-1.4-2.1-2.2-3c-3.1-4-7.1-7.4-11.5-9.8
			c-0.5-0.3-1.1-0.6-1.7-0.9c-2.1-1-4.3-1.9-6.6-2.5c-3.2,5.9-5.1,12.7-5.4,19.9c0,0.1,0,0.3,0,0.4c0,0.6,0,1.2,0,1.8
			c0,0.6,0,1.2,0,1.9c0,0.2,0,0.4,0,0.6c0,0.4,0.1,0.8,0.1,1.2c0,0.2,0,0.5,0.1,0.7c0,0.4,0.1,0.7,0.1,1.1c0,0.3,0.1,0.5,0.1,0.8
			c0,0.1,0,0.3,0.1,0.4c0.4,2.9,1.1,5.7,2,8.4c-1.8,2-3.8,3.9-5.9,5.6c1.7,0.4,3.5,0.6,5.3,0.6H90c-3.3,3.8-7.1,7-11.4,9.5
			c2.5,0.7,5,1.2,7.7,1.4c-2.5,1.9-4.8,4.1-6.9,6.6H88c0.5-0.9,1-1.7,1.6-2.5c0.5-0.6,1-1.1,1.5-1.7c2.3-2.3,5.2-4.1,8.4-5
			c-2.1-0.2-4.2-0.7-6.1-1.6c-0.1,0-0.2-0.1-0.3-0.1c0.1,0,0.2-0.1,0.4-0.1c4.1-0.9,7.7-3.1,10.3-6.1c-1-0.3-2-0.7-3-1.1
			c1.6-0.9,3.4-1.6,5.3-2c0.1,0,0.1,0,0.2,0c-0.1,0-0.1-0.1-0.1-0.1c-1.1-0.6-2.2-1.2-3.4-1.6c1.5-0.5,3-0.8,4.6-1
			c0.5,0,1-0.1,1.4-0.1c0.6,0,1.2,0,1.8,0.1c-0.8-0.9-1.6-1.7-2.5-2.5c0,0,0,0,0,0c2.8,0.3,5.4,1.2,7.6,2.7c-0.8-2.2-2-4.2-3.5-6
			c2.8,1.3,5.2,3.2,7.1,5.5c0.6,0.7,1.1,1.4,1.6,2.2c0.2,0.3,0.3,0.6,0.5,0.8c1.4,3.1,2.1,6.6,2.1,10.2c0,3.4-0.7,6.7-1.9,9.7
			c1.8-0.5,3.7-0.7,5.7-0.7c2,0,3.9,0.2,5.7,0.7c-1.2-3-1.9-6.3-1.9-9.7c0-3.6,0.8-7.1,2.1-10.2c0.1-0.3,0.3-0.6,0.5-0.8
			c0.5-0.8,1-1.5,1.6-2.2c1.9-2.4,4.3-4.3,7.1-5.5c-1.5,1.8-2.7,3.8-3.5,6c2.3-1.4,4.9-2.3,7.6-2.7c0,0,0,0,0,0
			c-0.9,0.8-1.7,1.6-2.5,2.5c0.6-0.1,1.2-0.1,1.8-0.1c0.5,0,1,0,1.4,0.1c1.6,0.1,3.1,0.5,4.6,1c-1.2,0.4-2.3,0.9-3.4,1.6
			c0,0-0.1,0.1-0.1,0.1c0.1,0,0.1,0,0.2,0c1.9,0.4,3.6,1.1,5.3,2c-1,0.5-2,0.8-3,1.1c2.7,3.1,6.3,5.3,10.3,6.1
			c0.1,0,0.2,0.1,0.4,0.1c-0.1,0-0.2,0.1-0.3,0.1c-1.9,0.8-3.9,1.4-6.1,1.6c3.2,0.9,6.1,2.6,8.4,5c0.5,0.5,1,1.1,1.5,1.7
			c0.6,0.8,1.2,1.6,1.6,2.5h8.7C173.6,107.9,171.2,105.8,168.7,103.8z M110.9,70.9c-0.8,0-1.6-0.1-2.4-0.2c-3-0.5-5.7-2.1-7.7-4.2
			c0.5,2.6,1.7,5,3.4,6.9c-0.3,0.2-0.6,0.4-1,0.6c-1.3,0.5-2.7,0.7-4.2,0.7c0.5,0.5,1.1,0.9,1.7,1.3c-0.5,0.5-1,1-1.5,1.6
			c-0.8,1-1.6,2-2.2,3.2c-1.2-1.2-2.2-2.6-2.9-4.2c-0.3-0.7-0.5-1.4-0.8-2.2c0.2,0.1,0.4,0.2,0.6,0.3c1,0.5,2.1,0.9,3.3,1
			c-0.4-0.4-0.7-0.9-1-1.3c-1.2-1.7-2-3.8-2.3-6c-0.1-0.6-0.1-1.2-0.1-1.9c0-0.3,0-0.5,0-0.7c0.1-1,0.2-1.9,0.4-2.8c0,0,0,0,0,0
			c0.1,0.1,0.2,0.2,0.4,0.3c0.1,0.1,0.2,0.1,0.3,0.2c0.5,0.3,1,0.6,1.5,0.8c-0.2-0.8-0.3-1.5-0.4-2.3C96.1,61.5,96,61,96,60.5
			c0-0.6,0-1.2,0.1-1.8c0,0,0,0,0,0c0.1-0.5,0.1-1.1,0.3-1.6c0,0,0,0,0,0v-0.1c0,0,0,0,0,0c0,0,0,0,0,0c0.2,0.1,0.3,0.1,0.5,0.2
			c0.1,0,0.1,0.1,0.2,0.1c0.1,0.1,0.2,0.1,0.3,0.1c0.5,0.2,0.9,0.5,1.5,0.8c0.3,0.2,0.6,0.3,0.9,0.5c0.4,0.3,0.8,0.5,1.3,0.8
			c2.1,1.4,4,3,5.7,4.8c0.7,0.7,1.3,1.4,1.9,2.2c0.5,0.6,0.9,1.2,1.3,1.7l0.2,0.3l0.4,0.6c0.1,0.1,0.1,0.2,0.2,0.3c0,0,0,0,0,0
			l0.8,1.3C111.3,70.9,111.1,70.9,110.9,70.9z M160.9,76.5c-0.7,1.6-1.7,3-2.9,4.2c-0.6-1.2-1.4-2.2-2.2-3.2c-0.5-0.6-1-1.1-1.5-1.6
			c0.6-0.4,1.2-0.8,1.7-1.3c-1.5,0-2.9-0.3-4.2-0.7c-0.3-0.2-0.6-0.4-1-0.6c1.7-1.9,2.9-4.3,3.4-6.9c-2,2.2-4.7,3.7-7.7,4.2
			c-0.8,0.1-1.6,0.2-2.4,0.2c-0.2,0-0.5,0-0.7,0l0.8-1.3c0,0,0,0,0,0c0.1-0.1,0.1-0.2,0.2-0.3l0.4-0.6l0.2-0.3
			c0.4-0.5,0.8-1.1,1.3-1.7c0.6-0.8,1.2-1.5,1.9-2.2c1.7-1.8,3.6-3.4,5.7-4.8c0.4-0.3,0.8-0.5,1.3-0.8c0.3-0.2,0.6-0.3,0.8-0.5
			c0.5-0.3,1-0.5,1.5-0.8c0.1,0,0.2-0.1,0.3-0.1c0.1,0,0.1-0.1,0.2-0.1c0.2-0.1,0.3-0.1,0.5-0.2c0,0,0,0,0,0c0,0,0,0,0,0
			c0,0,0,0,0,0.1c0.1,0.5,0.2,1,0.3,1.6c0,0,0,0,0,0c0.1,0.6,0.1,1.2,0.1,1.8c0,0.5,0,0.9-0.1,1.4c-0.1,0.8-0.2,1.6-0.4,2.3
			c0.5-0.2,1-0.5,1.5-0.8c0.1-0.1,0.2-0.1,0.3-0.2c0.1-0.1,0.3-0.2,0.4-0.3c0,0,0,0,0,0c0.2,0.9,0.4,1.8,0.4,2.8c0,0.2,0,0.5,0,0.7
			c0,0.6-0.1,1.3-0.1,1.9c-0.3,2.2-1.1,4.2-2.3,6c-0.3,0.5-0.6,0.9-1,1.3c1.2-0.2,2.3-0.5,3.3-1c0.2-0.1,0.4-0.2,0.6-0.3
			C161.4,75.1,161.2,75.8,160.9,76.5z"/>
		<path class="st3" d="M116.8,103.1c-0.6-1.3-1.6-2.4-2.8-3.2c-0.5-0.3-1.1-0.7-1.7-0.9c-1-0.4-2.1-0.6-3.3-0.6
			c-0.4,0-0.7,0-1.1,0.1c-1.4,0.2-2.8,0.7-3.9,1.4c0.9,0.9,2.1,1.5,3.4,1.6c0.4,2.2,2.5,3.9,5,3.9c1,0,1.8-0.2,2.6-0.7
			c0.6,0.7,1.5,1.2,2.5,1.4C117.5,105.1,117.2,104.1,116.8,103.1z M112.6,102.4c-1.5,0-2.7-1.2-2.7-2.7c0-0.3,0.1-0.6,0.1-0.9
			c0.5,0.1,1,0.2,1.4,0.4c0,0,0.1,0,0.1,0c-0.1,0.1-0.1,0.3-0.1,0.4c0,0.6,0.5,1.1,1.1,1.1c0.3,0,0.7-0.1,0.9-0.4
			c0.4,0.3,0.8,0.7,1.2,1.1C114.1,102,113.4,102.4,112.6,102.4z"/>
	</g>
</g>
<g id="LOGO_x5F_INFO" class="st0">
</g>
</svg>
