<svg version="1.2" xmlns="http://www.w3.org/2000/svg" viewBox="0 0 160 160" width="160" height="160">
	<title>pepperstone_blue_logo_160</title>
	<style>
		.s0 { fill: #ffffff } 
	</style>
	<path class="s0" d="m129.1 47.1c-20.2-11.7-62.8-20.8-85.1-21.4-22.3-0.6-24.9 7.4-23.7 25.7 1.4 18.3 6.6 46.6 18.3 64.6 11.7 18 29.4 26 48.3 19.4 18.8-6.5 38.8-27.4 50-44.8 10.8-17.5 12.5-31.7-7.8-43.5zm-39.7 50h-14.3v23.8h-14.5v-54.3h14.5v16h14.3c6 0 10.9-4.9 10.9-10.9 0-6-4.9-10.8-10.9-10.8h-46.8l5.4-14.6h41.4c14 0 25.7 11.4 25.7 25.7-0.2 13.7-11.7 25.1-25.7 25.1z"/>
</svg>