<?xml version="1.0" encoding="iso-8859-1"?>
<!-- Uploaded to: SVG Repo, www.svgrepo.com, Generator: SVG Repo Mixer Tools -->
<svg version="1.1" id="Layer_1" xmlns="http://www.w3.org/2000/svg" xmlns:xlink="http://www.w3.org/1999/xlink" 
	 viewBox="0 0 512 512" xml:space="preserve">
<rect x="51.273" y="147.519" style="fill:#FFC473;" width="108.669" height="331.191"/>
<rect x="352.057" y="146.432" style="fill:#FFA91F;" width="108.669" height="331.191"/>
<rect x="144.269" y="33.29" style="fill:#AEADB3;" width="223.462" height="429.746"/>
<rect x="255.31" y="33.29" style="fill:#8B8892;" width="112.421" height="429.746"/>
<rect x="230.4" y="363.478" style="fill:#FFFFFF;" width="51.2" height="99.558"/>
<rect x="255.31" y="363.478" style="fill:#C8C6CD;" width="26.29" height="99.558"/>
<g>
	<rect x="188.176" y="75.097" style="fill:#FFFFFF;" width="32.192" height="32.192"/>
	<rect x="239.909" y="75.097" style="fill:#FFFFFF;" width="32.183" height="32.193"/>
	<rect x="291.631" y="75.097" style="fill:#FFFFFF;" width="32.183" height="32.193"/>
	<rect x="188.176" y="125.774" style="fill:#FFFFFF;" width="32.192" height="32.192"/>
	<rect x="239.909" y="125.774" style="fill:#FFFFFF;" width="32.183" height="32.193"/>
	<rect x="291.631" y="125.774" style="fill:#FFFFFF;" width="32.183" height="32.193"/>
	<rect x="188.176" y="176.452" style="fill:#FFFFFF;" width="32.192" height="32.192"/>
	<rect x="239.909" y="176.452" style="fill:#FFFFFF;" width="32.183" height="32.193"/>
	<rect x="291.631" y="176.452" style="fill:#FFFFFF;" width="32.183" height="32.193"/>
	<rect x="188.176" y="227.129" style="fill:#FFFFFF;" width="32.192" height="32.192"/>
	<rect x="239.909" y="227.129" style="fill:#FFFFFF;" width="32.183" height="32.193"/>
	<rect x="291.631" y="227.129" style="fill:#FFFFFF;" width="32.183" height="32.193"/>
</g>
<g>
	<rect x="144.269" y="300.251" style="fill:#57555C;" width="223.462" height="31.347"/>
	<rect y="447.363" style="fill:#57555C;" width="512" height="31.347"/>
</g>
<rect x="255.31" y="300.251" style="fill:#2B292C;" width="112.421" height="31.347"/>
<g>
	<rect x="255.31" y="75.097" style="fill:#C8C6CD;" width="16.781" height="32.193"/>
	<rect x="255.31" y="125.774" style="fill:#C8C6CD;" width="16.781" height="32.193"/>
	<rect x="255.31" y="176.452" style="fill:#C8C6CD;" width="16.781" height="32.193"/>
	<rect x="255.31" y="227.129" style="fill:#C8C6CD;" width="16.781" height="32.193"/>
	<rect x="291.631" y="75.097" style="fill:#C8C6CD;" width="32.183" height="32.193"/>
	<rect x="291.631" y="125.774" style="fill:#C8C6CD;" width="32.183" height="32.193"/>
	<rect x="291.631" y="176.452" style="fill:#C8C6CD;" width="32.183" height="32.193"/>
	<rect x="291.631" y="227.129" style="fill:#C8C6CD;" width="32.183" height="32.193"/>
</g>
<rect x="255.31" y="447.363" style="fill:#2B292C;" width="256.69" height="31.347"/>
</svg>