<?xml version="1.0" encoding="UTF-8"?>
<!-- Generator: Adobe Illustrator 16.0.0, SVG Export Plug-In . SVG Version: 6.00 Build 0)  -->
<!DOCTYPE svg PUBLIC "-//W3C//DTD SVG 1.1//EN" "http://www.w3.org/Graphics/SVG/1.1/DTD/svg11.dtd">
<svg version="1.1" id="Layer_1" xmlns="http://www.w3.org/2000/svg" xmlns:xlink="http://www.w3.org/1999/xlink" x="0px" y="0px" width="592px" height="113px" viewBox="0 0 592 113" enable-background="new 0 0 592 113" xml:space="preserve">
<path fill="#2479BF" d="M17.217,80.343c0,10.471,8.488,18.959,18.959,18.959V40.827H17.217V80.343z"/>
<polygon fill="#2479BF" points="17.217,16.064 17.217,32.8 45.495,32.8 45.495,99.294 45.495,99.302 45.5,99.302 64.454,99.302   64.454,16.172 64.454,16.064 64.406,16.064 "/>
<path fill="#2479BF" d="M81.495,16.064h-7.053l26.012,58.611v-7.863V35.023C100.454,24.553,91.966,16.064,81.495,16.064z"/>
<polygon fill="#2479BF" points="74.442,40.689 74.442,99.301 100.455,99.301 101.465,99.301 74.442,38.606 "/>
<polygon fill="#2479BF" points="119.466,58.588 132.97,58.588 132.97,98.968 142.816,98.968 142.816,58.588 156.387,58.588   156.387,49.74 119.466,49.74 "/>
<polygon fill="#2479BF" points="190.114,70.23 171.554,70.23 171.554,49.74 161.708,49.74 161.708,98.968 171.554,98.968   171.554,79.077 190.114,79.077 190.114,98.968 200.026,98.968 200.026,49.74 190.114,49.74 "/>
<rect x="208.473" y="49.74" fill="#2479BF" width="9.846" height="49.229"/>
<path fill="#2479BF" d="M246.89,49.874c-2.551-0.089-5.489-0.134-8.814-0.134c-1.288,0-2.595,0.178-3.925,0.533  c-1.331,0.354-2.552,0.954-3.659,1.796c-1.11,0.843-1.996,1.996-2.661,3.46c-0.666,1.463-0.998,3.282-0.998,5.454v27.474  c0,2.528,0.41,4.514,1.23,5.954c0.821,1.442,1.864,2.519,3.127,3.228c1.264,0.71,2.583,1.163,3.958,1.362  c1.374,0.2,2.595,0.301,3.659,0.301c2.172,0,4.468-0.046,6.885-0.134c2.417-0.09,4.812-0.199,7.185-0.333  c2.372-0.133,4.534-0.31,6.486-0.531v-8.249h-18.56c-0.71,0-1.387-0.122-2.029-0.366c-0.643-0.243-1.154-0.688-1.53-1.33  c-0.377-0.643-0.565-1.541-0.565-2.695v-6.785l19.491-0.532v-7.783l-19.491-0.532v-7.118c0-1.374,0.376-2.394,1.13-3.06  c0.754-0.665,1.818-0.998,3.194-0.998h18.36v-8.248c-1.686-0.177-3.549-0.322-5.588-0.434  C251.734,50.063,249.438,49.963,246.89,49.874z"/>
<polygon fill="#2479BF" points="295.417,82.204 274.795,49.74 266.878,49.74 266.878,98.968 276.791,98.968 276.791,66.505   297.346,98.968 305.263,98.968 305.263,49.74 295.417,49.74 "/>
<polygon fill="#2479BF" points="359.413,82.204 338.791,49.74 330.874,49.74 330.874,98.968 340.786,98.968 340.786,66.505   361.342,98.968 369.258,98.968 369.258,49.74 359.413,49.74 "/>
<path fill="#2479BF" d="M406.245,70.829c-1.286,0-2.627,0.033-4.024,0.1s-2.739,0.144-4.024,0.232  c-1.287,0.09-2.395,0.2-3.326,0.333v7.783h8.848v9.579c-1.021,0.311-2.362,0.622-4.025,0.932c-1.662,0.311-3.404,0.465-5.222,0.465  c-1.597,0-2.938-0.231-4.024-0.697c-1.088-0.467-1.963-1.286-2.627-2.462c-0.666-1.175-1.144-2.782-1.432-4.822  c-0.289-2.04-0.432-4.657-0.432-7.851c0-4.124,0.266-7.373,0.798-9.744c0.532-2.373,1.519-4.06,2.96-5.058s3.559-1.496,6.354-1.496  c2.039,0,4.014,0.057,5.92,0.166c1.907,0.111,3.637,0.232,5.189,0.366c1.552,0.133,2.794,0.266,3.725,0.399v-7.584  c-1.686-0.442-3.371-0.831-5.055-1.164c-1.688-0.332-3.471-0.587-5.355-0.766c-1.886-0.177-3.959-0.266-6.221-0.266  c-3.725,0-6.775,0.565-9.146,1.696c-2.373,1.131-4.215,2.771-5.521,4.923c-1.309,2.151-2.218,4.778-2.727,7.883  c-0.512,3.104-0.766,6.63-0.766,10.577c0,3.77,0.221,7.185,0.666,10.245c0.441,3.06,1.219,5.687,2.327,7.883  c1.108,2.195,2.65,3.881,4.623,5.056c1.974,1.175,4.513,1.764,7.617,1.764c2.75,0,5.299-0.422,7.649-1.266  c2.351-0.841,4.17-1.64,5.457-2.394l1.33,3.326h7.383V71.029c-0.93-0.089-1.963-0.144-3.092-0.167  C408.939,70.84,407.663,70.829,406.245,70.829z"/>
<path fill="#2479BF" d="M449.551,83.069c0,1.819-0.366,3.26-1.099,4.324c-0.73,1.063-1.795,1.841-3.192,2.328  c-1.397,0.488-3.071,0.731-5.022,0.731c-1.996,0-3.691-0.243-5.088-0.731c-1.397-0.487-2.463-1.265-3.195-2.328  c-0.731-1.064-1.096-2.505-1.096-4.324V49.74h-9.847v33.396c0,3.282,0.476,5.978,1.431,8.083c0.953,2.106,2.305,3.747,4.059,4.923  c1.751,1.175,3.802,1.995,6.152,2.461s4.879,0.699,7.584,0.699c2.75,0,5.289-0.233,7.617-0.699s4.357-1.286,6.088-2.461  c1.729-1.176,3.082-2.816,4.057-4.923c0.975-2.105,1.464-4.801,1.464-8.083V49.74h-9.912V83.069z"/>
<polygon fill="#2479BF" points="484.142,74.022 474.431,49.74 464.185,49.74 479.021,84.067 479.021,98.968 488.865,98.968   488.865,84.067 503.633,49.74 493.788,49.74 "/>
<path fill="#2479BF" d="M527.149,49.874c-2.551-0.089-5.488-0.134-8.814-0.134c-1.287,0-2.594,0.178-3.924,0.533  c-1.331,0.354-2.553,0.954-3.659,1.796c-1.11,0.843-1.996,1.996-2.661,3.46c-0.666,1.463-0.998,3.282-0.998,5.454v27.474  c0,2.528,0.41,4.514,1.23,5.954c0.82,1.442,1.863,2.519,3.127,3.228c1.264,0.71,2.582,1.163,3.957,1.362  c1.375,0.2,2.596,0.301,3.66,0.301c2.172,0,4.467-0.046,6.885-0.134c2.416-0.09,4.812-0.199,7.185-0.333  c2.372-0.133,4.534-0.31,6.486-0.531v-8.249h-18.56c-0.711,0-1.388-0.122-2.029-0.366c-0.645-0.243-1.154-0.688-1.53-1.33  c-0.377-0.643-0.565-1.541-0.565-2.695v-6.785l19.49-0.532v-7.783l-19.49-0.532v-7.118c0-1.374,0.377-2.394,1.131-3.06  c0.752-0.665,1.817-0.998,3.192-0.998h18.361v-8.248c-1.687-0.177-3.55-0.322-5.589-0.434  C531.995,50.063,529.698,49.963,527.149,49.874z"/>
<polygon fill="#2479BF" points="575.678,82.204 555.056,49.74 547.139,49.74 547.139,98.968 557.051,98.968 557.051,66.505   577.606,98.968 585.522,98.968 585.522,49.74 575.678,49.74 "/>
</svg>